<svg width="32" height="32" viewBox="0 0 80 80" fill="none" xmlns="http://www.w3.org/2000/svg">
<path d="M39.82 79.1504C61.3532 79.1504 79.2732 61.2793 79.2732 39.7461C79.2732 18.2129 61.3044 0.341797 39.7712 0.341797C18.2868 0.341797 0.415771 18.2129 0.415771 39.7461C0.415771 61.2793 18.3357 79.1504 39.82 79.1504Z" fill="#FF2D55"/>
<path d="M47.5837 58.7402C46.4607 59.8633 44.1657 59.7656 42.9939 58.6426L27.4177 44.0918C24.9763 41.8457 24.9763 37.793 27.4177 35.498L42.9939 20.9961C44.3122 19.7754 46.3142 19.6777 47.5349 20.8496C48.9021 22.1191 48.9509 24.2676 47.6325 25.5371L32.3005 39.7949L47.6325 54.1016C48.9021 55.3223 48.9509 57.4219 47.5837 58.7402Z" fill="white"/>
</svg>
