<svg width="40" height="40" viewBox="0 0 85 85" fill="none" xmlns="http://www.w3.org/2000/svg">
<path d="M42.3982 84.7871C65.5428 84.7871 84.3904 65.9395 84.3904 42.7949C84.3904 19.6504 65.5428 0.802734 42.3982 0.802734C19.2537 0.802734 0.406006 19.6504 0.406006 42.7949C0.406006 65.9395 19.2537 84.7871 42.3982 84.7871Z" fill="#FF2D55"/>
<path d="M42.8376 33.4199C42.5934 31.0273 43.6677 28.7812 45.7184 26.7793L57.2419 38.3027C55.3376 40.3535 53.0427 41.4277 50.6012 41.2324L45.5231 45.9199V59.4453C45.5231 60.8613 44.3512 62.082 42.9352 62.082C41.4216 62.082 40.2497 60.959 40.2497 59.4453V50.8516L32.0466 58.4688C31.07 59.3965 29.8005 59.543 28.7751 58.9082L26.1384 60.8613C25.4059 61.3984 24.6247 61.3008 23.9411 60.7148L23.3552 60.1777C22.6716 59.543 22.5739 58.6152 23.1598 57.8828L25.113 55.2949C24.4782 54.2695 24.6247 52.9512 25.5524 51.9746L42.8376 33.4199ZM29.3122 54.0254L30.0934 54.709L46.0114 39.377C45.7184 39.084 45.4743 38.8887 45.3278 38.7422C45.0837 38.4492 44.8884 38.3027 44.5954 38.0098L29.3122 54.0254ZM59.3415 24.7285C62.8083 28.1953 62.7106 33.127 58.902 36.6426L47.4274 25.0703C50.943 21.4082 55.777 21.2129 59.3415 24.7285Z" fill="white"/>
</svg>
