<svg width="24" height="22" viewBox="0 0 91 83" fill="none" xmlns="http://www.w3.org/2000/svg">
<path d="M12.2559 82.3242H52.7344C60.9375 82.3242 65.0391 78.2226 65.0391 69.873V45.5566H37.4512C35.1074 45.5566 33.1543 43.5547 33.1543 41.1621C33.1543 38.7695 35.1074 36.7676 37.4512 36.7676H65.0391V12.4512C65.0391 4.1504 60.9375 0 52.7344 0H12.2559C4.05278 0 0 4.1504 0 12.4512V69.873C0 78.2226 4.05278 82.3242 12.2559 82.3242Z" fill="white"/>
<path d="M61.5723 41.1621C61.5723 43.0176 63.1348 44.6289 64.9903 44.6289H75.586L81.3965 44.3359L79.1992 46.4355L73.3887 51.8066C72.6563 52.3926 72.3633 53.2715 72.3633 54.1504C72.3633 55.957 73.6328 57.3242 75.3906 57.3242C76.3184 57.3242 77.0508 56.9336 77.6856 56.2988L89.7461 43.7012C90.6254 42.8222 90.9184 42.041 90.9184 41.1621C90.9184 40.2832 90.6254 39.5019 89.7461 38.623L77.6856 26.0254C77.0508 25.3418 76.3184 25 75.3906 25C73.6328 25 72.3633 26.3183 72.3633 28.125C72.3633 29.0039 72.6563 29.9316 73.3887 30.5176L79.1992 35.8887L81.3965 37.9883L75.586 37.6953H64.9903C63.1348 37.6953 61.5723 39.3066 61.5723 41.1621Z" fill="white"/>
</svg>
