<svg width="41" height="40" viewBox="0 0 79 78" fill="none" xmlns="http://www.w3.org/2000/svg">
<path d="M2.92968 47.4434H36.6699C38.3301 47.4434 39.5996 46.1738 39.5996 44.5137C39.5996 42.9512 38.2813 41.6328 36.6699 41.6328H2.92968C1.31838 41.6328 0 42.9512 0 44.5137C0 46.1738 1.26958 47.4434 2.92968 47.4434Z" fill="#FF2D55"/>
<path d="M2.92968 33.625H36.6699C38.3301 33.625 39.5996 32.3066 39.5996 30.6953C39.5996 29.084 38.2813 27.8145 36.6699 27.8145H2.92968C1.31838 27.8145 0 29.084 0 30.6953C0 32.3066 1.26958 33.625 2.92968 33.625Z" fill="#FF2D55"/>
<path d="M2.92968 19.8556H36.6699C38.2813 19.8556 39.5996 18.5372 39.5996 16.9259C39.5996 15.3146 38.2813 13.9962 36.6699 13.9962H2.92968C1.31838 13.9962 0 15.3146 0 16.9259C0 18.5372 1.31838 19.8556 2.92968 19.8556Z" fill="#FF2D55"/>
<path d="M78.9551 17.7559V3.15634C78.9551 1.05664 77.2461 -0.359359 75.1953 0.0801407L55.0293 4.47464C52.3926 5.06064 50.9766 6.42774 50.9766 8.72274V51.6914C51.2207 53.4492 50.3906 54.5723 48.877 54.8652L42.7735 56.1348C34.9121 57.7949 31.25 61.7988 31.25 67.7559C31.25 73.7618 35.8887 77.961 42.3828 77.961C48.0957 77.961 56.7383 73.7129 56.7383 62.3848V27.0332C56.7383 25.0801 57.0313 24.7871 58.7403 24.4453L76.7578 20.4414C78.125 20.1484 78.9551 19.1231 78.9551 17.7559Z" fill="#FF2D55"/>
</svg>
