<svg width="25" height="40" viewBox="0 0 48 79" fill="none" xmlns="http://www.w3.org/2000/svg">
<path d="M47.7007 18.3848V3.78519C47.7007 1.68549 45.9917 0.269486 43.8921 0.708986L23.7749 5.10349C21.1382 5.68949 19.7222 7.05659 19.7222 9.35159V52.3203C19.9663 54.0781 19.1362 55.2012 17.5738 55.4941L11.4702 56.7637C3.65769 58.4238 -0.00439453 62.4277 -0.00439453 68.3848C-0.00439453 74.3906 4.63428 78.5898 11.1284 78.5898C16.8413 78.5898 25.4351 74.3418 25.4351 63.0137V27.6621C25.4351 25.709 25.7769 25.416 27.4859 25.0742L45.5034 21.0703C46.8218 20.7773 47.7007 19.752 47.7007 18.3848Z" fill="#FF2D55"/>
</svg>
