<svg width="41" height="41" viewBox="0 0 41 41" fill="none" xmlns="http://www.w3.org/2000/svg">
<path d="M20.4035 40.3659C31.3261 40.3659 40.4159 31.3008 40.4159 20.3782C40.4159 9.45564 31.3013 0.390625 20.3787 0.390625C9.48089 0.390625 0.415894 9.45564 0.415894 20.3782C0.415894 31.3008 9.50569 40.3659 20.4035 40.3659Z" fill="#FF2D55"/>
<path d="M15.1527 32.2421C13.7657 32.2421 12.9979 31.5238 12.9484 30.112L12.2797 14.4835H10.7441C10.2487 14.4835 9.82764 14.0625 9.82764 13.5671C9.82764 13.047 10.2487 12.6012 10.7441 12.6012H15.4252V11.0408C15.4252 9.3071 16.5397 8.21729 18.3725 8.21729H22.3849C24.2178 8.21729 25.3571 9.3071 25.3571 11.0408V12.6012H30.0382C30.5583 12.6012 31.0041 13.047 30.9793 13.5671C30.9546 14.0625 30.5583 14.4835 30.0382 14.4835H28.5274L27.8834 30.112C27.8339 31.5238 27.0165 32.2421 25.6543 32.2421H15.1527ZM16.936 29.1213C17.4066 29.1213 17.679 28.8241 17.679 28.403L17.3571 16.8117C17.3571 16.3659 17.0598 16.0687 16.614 16.0687C16.0939 16.0687 15.8214 16.3659 15.8214 16.8365L16.1434 28.403C16.1434 28.8241 16.4902 29.1213 16.936 29.1213ZM20.3787 29.1213C20.8741 29.1213 21.1961 28.8241 21.1961 28.403V16.8365C21.1961 16.3659 20.8741 16.0687 20.3787 16.0687C19.9082 16.0687 19.6109 16.3659 19.6109 16.8365V28.403C19.6109 28.8241 19.9082 29.1213 20.3787 29.1213ZM23.8462 29.1213C24.2673 29.1213 24.6388 28.8241 24.6388 28.403L24.936 16.8365C24.936 16.3659 24.6636 16.0687 24.193 16.0687C23.7224 16.0687 23.4004 16.3659 23.4004 16.8117L23.0784 28.403C23.0784 28.8241 23.3756 29.1213 23.8462 29.1213ZM17.7038 12.6012H23.0784V11.1647C23.0784 10.6941 22.7564 10.3721 22.2611 10.3721H18.5211C18.0258 10.3721 17.7038 10.6941 17.7038 11.1647V12.6012Z" fill="white"/>
</svg>
